<mxfile host="app.diagrams.net" modified="2022-02-07T20:39:10.508Z" agent="5.0 (Macintosh; Intel Mac OS X 10_15_7) AppleWebKit/605.1.15 (KHTML, like Gecko) Version/15.1 Safari/605.1.15" etag="51q-NeCJk-p3ffv7U52Z" version="16.5.3" type="github">
  <diagram id="mFWaUErlPnHxPM7GN86O" name="Page-1">
    <mxGraphModel dx="1351" dy="763" grid="1" gridSize="10" guides="1" tooltips="1" connect="1" arrows="1" fold="1" page="1" pageScale="1" pageWidth="850" pageHeight="1100" math="0" shadow="0">
      <root>
        <mxCell id="0" />
        <mxCell id="1" parent="0" />
        <mxCell id="32ZOnwc0DPlcuyEEhkx9-1" value="&lt;font color=&quot;#ffffff&quot;&gt;Start&lt;/font&gt;" style="rounded=1;whiteSpace=wrap;html=1;fillColor=#FFB570;" vertex="1" parent="1">
          <mxGeometry x="365" y="20" width="120" height="60" as="geometry" />
        </mxCell>
        <mxCell id="32ZOnwc0DPlcuyEEhkx9-2" value="" style="endArrow=classic;html=1;rounded=0;fontColor=#FFFFFF;exitX=0.5;exitY=1;exitDx=0;exitDy=0;" edge="1" parent="1" source="32ZOnwc0DPlcuyEEhkx9-1">
          <mxGeometry width="50" height="50" relative="1" as="geometry">
            <mxPoint x="390" y="150" as="sourcePoint" />
            <mxPoint x="425" y="120" as="targetPoint" />
          </mxGeometry>
        </mxCell>
        <mxCell id="32ZOnwc0DPlcuyEEhkx9-5" value="Answer the &amp;nbsp;question:&lt;br&gt;What is the capital of the US?" style="rounded=0;whiteSpace=wrap;html=1;fontColor=#FFFFFF;fillColor=#97D077;" vertex="1" parent="1">
          <mxGeometry x="363" y="120" width="125" height="60" as="geometry" />
        </mxCell>
        <mxCell id="32ZOnwc0DPlcuyEEhkx9-6" value="Choose the answer:&lt;br&gt;1 - London&lt;br&gt;2 - New York&lt;br&gt;3 - Washington" style="rounded=0;whiteSpace=wrap;html=1;fontColor=#FFFFFF;fillColor=#97D077;" vertex="1" parent="1">
          <mxGeometry x="365" y="220" width="120" height="60" as="geometry" />
        </mxCell>
        <mxCell id="32ZOnwc0DPlcuyEEhkx9-7" value="" style="endArrow=classic;html=1;rounded=0;fontColor=#FFFFFF;exitX=0.5;exitY=1;exitDx=0;exitDy=0;" edge="1" parent="1">
          <mxGeometry width="50" height="50" relative="1" as="geometry">
            <mxPoint x="424" y="180" as="sourcePoint" />
            <mxPoint x="424" y="220" as="targetPoint" />
          </mxGeometry>
        </mxCell>
        <mxCell id="32ZOnwc0DPlcuyEEhkx9-8" value="" style="endArrow=classic;html=1;rounded=0;fontColor=#FFFFFF;exitX=0.5;exitY=1;exitDx=0;exitDy=0;" edge="1" parent="1">
          <mxGeometry width="50" height="50" relative="1" as="geometry">
            <mxPoint x="424" y="280" as="sourcePoint" />
            <mxPoint x="424" y="320" as="targetPoint" />
          </mxGeometry>
        </mxCell>
        <mxCell id="32ZOnwc0DPlcuyEEhkx9-9" value="Enter the number of the answer" style="shape=parallelogram;perimeter=parallelogramPerimeter;whiteSpace=wrap;html=1;fixedSize=1;fontColor=#FFFFFF;fillColor=#7EA6E0;" vertex="1" parent="1">
          <mxGeometry x="343" y="320" width="165" height="60" as="geometry" />
        </mxCell>
        <mxCell id="32ZOnwc0DPlcuyEEhkx9-10" value="" style="endArrow=classic;html=1;rounded=0;fontColor=#FFFFFF;exitX=0.5;exitY=1;exitDx=0;exitDy=0;" edge="1" parent="1">
          <mxGeometry width="50" height="50" relative="1" as="geometry">
            <mxPoint x="424" y="380" as="sourcePoint" />
            <mxPoint x="424" y="420" as="targetPoint" />
          </mxGeometry>
        </mxCell>
        <mxCell id="32ZOnwc0DPlcuyEEhkx9-11" value="Is the entered &lt;br&gt;number &lt;br&gt;equal to 1?" style="rhombus;whiteSpace=wrap;html=1;fontColor=#FFFFFF;fillColor=#B5739D;" vertex="1" parent="1">
          <mxGeometry x="358" y="420" width="130" height="100" as="geometry" />
        </mxCell>
        <mxCell id="32ZOnwc0DPlcuyEEhkx9-13" value="&lt;font color=&quot;#000000&quot;&gt;YES&lt;/font&gt;" style="endArrow=classic;html=1;rounded=0;fontColor=#FFFFFF;exitX=0.5;exitY=1;exitDx=0;exitDy=0;" edge="1" parent="1">
          <mxGeometry width="50" height="50" relative="1" as="geometry">
            <mxPoint x="422.5" y="520" as="sourcePoint" />
            <mxPoint x="280" y="610" as="targetPoint" />
            <Array as="points">
              <mxPoint x="280" y="520" />
            </Array>
          </mxGeometry>
        </mxCell>
        <mxCell id="32ZOnwc0DPlcuyEEhkx9-15" value="&lt;font color=&quot;#ffffff&quot;&gt;Output:&lt;br&gt;Congratulations! You completed the game!&lt;/font&gt;" style="shape=parallelogram;perimeter=parallelogramPerimeter;whiteSpace=wrap;html=1;fixedSize=1;fontColor=#000000;fillColor=#7EA6E0;" vertex="1" parent="1">
          <mxGeometry x="200" y="610" width="150" height="60" as="geometry" />
        </mxCell>
        <mxCell id="32ZOnwc0DPlcuyEEhkx9-16" value="" style="endArrow=classic;html=1;rounded=0;fontColor=#FFFFFF;exitX=0.5;exitY=1;exitDx=0;exitDy=0;" edge="1" parent="1">
          <mxGeometry width="50" height="50" relative="1" as="geometry">
            <mxPoint x="422.5" y="520" as="sourcePoint" />
            <mxPoint x="560" y="610" as="targetPoint" />
            <Array as="points">
              <mxPoint x="560" y="520" />
            </Array>
          </mxGeometry>
        </mxCell>
        <mxCell id="32ZOnwc0DPlcuyEEhkx9-18" value="&lt;font color=&quot;#000000&quot;&gt;NO&lt;/font&gt;" style="edgeLabel;html=1;align=center;verticalAlign=middle;resizable=0;points=[];fontColor=#FFFFFF;" vertex="1" connectable="0" parent="32ZOnwc0DPlcuyEEhkx9-16">
          <mxGeometry x="-0.1429" y="-3" relative="1" as="geometry">
            <mxPoint x="1" as="offset" />
          </mxGeometry>
        </mxCell>
        <mxCell id="32ZOnwc0DPlcuyEEhkx9-17" value="&lt;font color=&quot;#ffffff&quot;&gt;Output:&lt;br&gt;Sorry, you lose the game!&lt;/font&gt;" style="shape=parallelogram;perimeter=parallelogramPerimeter;whiteSpace=wrap;html=1;fixedSize=1;fontColor=#000000;fillColor=#7EA6E0;" vertex="1" parent="1">
          <mxGeometry x="470" y="610" width="170" height="60" as="geometry" />
        </mxCell>
        <mxCell id="32ZOnwc0DPlcuyEEhkx9-19" value="" style="endArrow=classic;html=1;rounded=0;fontColor=#000000;exitX=0.5;exitY=1;exitDx=0;exitDy=0;" edge="1" parent="1" source="32ZOnwc0DPlcuyEEhkx9-15">
          <mxGeometry width="50" height="50" relative="1" as="geometry">
            <mxPoint x="440" y="740" as="sourcePoint" />
            <mxPoint x="350" y="760" as="targetPoint" />
            <Array as="points">
              <mxPoint x="275" y="760" />
            </Array>
          </mxGeometry>
        </mxCell>
        <mxCell id="32ZOnwc0DPlcuyEEhkx9-21" value="&lt;font color=&quot;#ffffff&quot;&gt;&lt;span&gt;End&lt;/span&gt;&lt;/font&gt;" style="rounded=1;whiteSpace=wrap;html=1;fillColor=#FFB570;" vertex="1" parent="1">
          <mxGeometry x="358" y="730" width="120" height="60" as="geometry" />
        </mxCell>
        <mxCell id="32ZOnwc0DPlcuyEEhkx9-22" value="" style="endArrow=classic;html=1;rounded=0;fontColor=#000000;exitX=0.5;exitY=1;exitDx=0;exitDy=0;" edge="1" parent="1">
          <mxGeometry width="50" height="50" relative="1" as="geometry">
            <mxPoint x="560" y="670" as="sourcePoint" />
            <mxPoint x="480" y="760" as="targetPoint" />
            <Array as="points">
              <mxPoint x="560" y="760" />
            </Array>
          </mxGeometry>
        </mxCell>
      </root>
    </mxGraphModel>
  </diagram>
</mxfile>
